<svg width="112" height="112" viewBox="0 0 112 112" fill="none" xmlns="http://www.w3.org/2000/svg">
<path d="M0 56C0 25.0721 25.0721 0 56 0C86.9279 0 112 25.0721 112 56C112 86.9279 86.9279 112 56 112C25.0721 112 0 86.9279 0 56Z" fill="#84EDFF"/>
<path d="M25.6298 43.0779L19 37.2728L19.8247 35.0558H28.6287L27.7826 37.3157L20.4245 37.0372L20.7672 36.2125L26.508 40.8608L25.6298 43.0779ZM25.0514 40.6788L23.3592 40.0576L24.9657 35.7734L26.658 36.3946L25.0514 40.6788Z" fill="#00829B"/>
<path d="M30.7493 36.5124L23.9802 31.9604L25.2441 30.0754L26.4115 30.8679L27.3433 31.939L28.6607 32.4638L31.9381 34.6809L30.7493 36.5124ZM30.7493 32.3139C30.5668 32.5836 30.3384 32.8192 30.0745 33.01C29.8326 33.191 29.5552 33.3187 29.2605 33.3849C28.9927 33.438 28.7156 33.4195 28.4572 33.3313L25.8974 31.5641C25.7104 31.3545 25.5812 31.0998 25.5225 30.8251C25.4562 30.5093 25.4543 30.1834 25.5169 29.8669C25.5795 29.5504 25.7052 29.2497 25.8867 28.9829C26.1729 28.5518 26.5684 28.2044 27.0327 27.9761C27.4742 27.7721 27.9635 27.6942 28.4465 27.7512C28.9751 27.8159 29.4793 28.0109 29.9138 28.3188C30.3614 28.6095 30.7295 29.007 30.9849 29.4756C31.2224 29.9196 31.3293 30.4218 31.2933 30.9241C31.2573 31.4264 31.0798 31.9082 30.7814 32.3139H30.7493ZM28.8642 31.5534C28.965 31.4078 29.0243 31.2375 29.0356 31.0607C29.0463 30.8978 29.013 30.7351 28.9392 30.5895C28.8581 30.4349 28.7404 30.3026 28.5964 30.2039C28.453 30.1049 28.2876 30.0424 28.1145 30.0218C27.9529 30.0144 27.7918 30.0437 27.6432 30.1075C27.4887 30.1886 27.3563 30.3063 27.2576 30.4502C27.1617 30.5903 27.1027 30.7525 27.0863 30.9215C27.0745 31.0845 27.1078 31.2475 27.1827 31.3928C27.2644 31.5502 27.3864 31.6832 27.5361 31.7783C27.6732 31.8818 27.8364 31.9448 28.0074 31.9604C28.1684 31.9794 28.3315 31.9534 28.4786 31.8854C28.6475 31.8133 28.7951 31.699 28.907 31.5534H28.8642Z" fill="#00829B"/>
<path d="M32.5487 29.7862L28.5322 25.759L30.1281 24.1632L34.1552 28.1903L32.5487 29.7862ZM31.981 26.0054L30.5672 26.0911C30.3584 25.5566 30.2777 24.9807 30.3316 24.4095C30.426 23.8941 30.6809 23.4218 31.0599 23.06C31.2217 22.899 31.4056 22.762 31.6061 22.653C31.763 22.564 31.9399 22.5161 32.1202 22.5138L32.4951 24.6559C32.399 24.659 32.3044 24.6808 32.2166 24.7201C32.101 24.7666 31.9982 24.8401 31.9167 24.9343C31.841 24.9935 31.781 25.0703 31.7418 25.1581C31.7025 25.2458 31.6854 25.3418 31.6918 25.4377C31.6967 25.5454 31.7228 25.651 31.7688 25.7484C31.8148 25.8458 31.8796 25.9332 31.9596 26.0054H31.981Z" fill="#00829B"/>
<path d="M38.1825 24.9879C37.7143 25.3351 37.1648 25.5564 36.5866 25.6305C36.0556 25.7005 35.5155 25.6266 35.0229 25.4163C34.5232 25.1813 34.1 24.81 33.8019 24.3452C33.4859 23.9098 33.3002 23.3935 33.2664 22.8565C33.2548 22.3416 33.3766 21.8324 33.6198 21.3784C33.9016 20.873 34.2951 20.4385 34.7703 20.1081C35.2454 19.7777 35.7897 19.5601 36.3617 19.472C36.8883 19.3984 37.4249 19.4687 37.9147 19.6755C38.4074 19.891 38.8303 20.2397 39.1357 20.6823C39.4475 21.124 39.6327 21.6424 39.6712 22.1817C39.7047 22.7119 39.5937 23.2413 39.3499 23.7133C39.0737 24.2293 38.6723 24.6676 38.1825 24.9879ZM37.0365 23.3706C37.1788 23.2656 37.2958 23.1302 37.3792 22.9743C37.4447 22.8264 37.4669 22.663 37.4435 22.503C37.4182 22.3243 37.3482 22.1548 37.24 22.0104C37.141 21.8572 37.0046 21.7319 36.8437 21.6462C36.6977 21.5734 36.5352 21.5401 36.3724 21.5498C36.1986 21.5672 36.0324 21.63 35.8904 21.7319C35.7504 21.8319 35.6365 21.9641 35.5584 22.1175C35.4967 22.2702 35.471 22.4352 35.4834 22.5994C35.5115 22.7807 35.5812 22.953 35.6869 23.1028C35.7873 23.252 35.9236 23.3736 36.0832 23.4563C36.2288 23.5301 36.3916 23.5634 36.5545 23.5527C36.7264 23.5273 36.8907 23.4652 37.0365 23.3706Z" fill="#00829B"/>
<path d="M40.8923 22.9743L37.5935 15.1771L39.6821 14.2881L41.31 18.1332L41.5028 19.547L42.3383 20.7037L42.9273 22.0961L40.8923 22.9743ZM44.1697 21.7105C43.8677 21.8486 43.5377 21.9146 43.2058 21.9033C42.8932 21.9038 42.5837 21.8419 42.2954 21.7212C42.038 21.6123 41.813 21.4389 41.6421 21.2178L40.4211 18.3153C40.3782 18.0473 40.4116 17.7726 40.5175 17.5227C40.6415 17.2439 40.8199 16.9926 41.0423 16.7837C41.281 16.5627 41.5565 16.3851 41.8563 16.2588C42.3295 16.0468 42.852 15.969 43.3665 16.0339C43.8512 16.0991 44.3078 16.2995 44.6838 16.6123C45.0876 16.9581 45.4033 17.395 45.6049 17.8868C45.8217 18.3743 45.9138 18.908 45.8727 19.4399C45.8441 19.9248 45.6809 20.3921 45.4015 20.7894C45.0851 21.2055 44.6584 21.5247 44.1697 21.7105ZM43.013 20.0396C43.1715 19.9805 43.3093 19.8762 43.4093 19.7398C43.5096 19.609 43.5725 19.4536 43.5914 19.2899C43.6056 19.1141 43.5762 18.9375 43.5057 18.7758C43.4398 18.6151 43.3327 18.4747 43.1951 18.3688C43.0665 18.2649 42.9099 18.2016 42.7453 18.1867C42.5738 18.1651 42.3996 18.191 42.2419 18.2617C42.0812 18.3276 41.9408 18.4347 41.8349 18.5723C41.7406 18.7013 41.6816 18.8527 41.6635 19.0114C41.6544 19.1846 41.6875 19.3573 41.7599 19.5148C41.8224 19.6833 41.9298 19.8314 42.0705 19.9433C42.1989 20.0405 42.3501 20.1032 42.5096 20.1253C42.6821 20.1431 42.8561 20.1135 43.013 20.0396Z" fill="#00829B"/>
<path d="M49.2358 20.1789C48.7488 20.2766 48.2441 20.2358 47.7792 20.0611C47.3288 19.8859 46.9358 19.5893 46.6438 19.2042C46.3281 18.7967 46.115 18.3191 46.0226 17.8119C45.9078 17.2873 45.9262 16.7423 46.0762 16.2267C46.2079 15.7641 46.4679 15.3482 46.8259 15.0271C47.1964 14.696 47.6532 14.4769 48.1433 14.3952C48.4511 14.3365 48.7673 14.3365 49.0751 14.3952C49.356 14.4503 49.6223 14.5634 49.857 14.7272C50.0751 14.8852 50.2456 15.1001 50.3497 15.3484L50.9495 18.5616C50.9406 18.8283 50.8591 19.0875 50.7138 19.3113C50.5617 19.551 50.3565 19.7526 50.114 19.9004C49.8406 20.0458 49.543 20.1402 49.2358 20.1789ZM49.375 18.1225C49.5007 18.104 49.621 18.0591 49.7281 17.9908C49.8351 17.9225 49.9265 17.8323 49.9962 17.7262C50.0662 17.62 50.1137 17.5006 50.1358 17.3753C50.1579 17.2501 50.1542 17.1216 50.1248 16.9979C50.0978 16.8229 50.0279 16.6573 49.9213 16.5159C49.8147 16.3937 49.6781 16.3014 49.525 16.2481C49.3608 16.199 49.1858 16.199 49.0216 16.2481C48.8509 16.2812 48.692 16.3588 48.561 16.473C48.4377 16.5786 48.3451 16.7155 48.2933 16.8693C48.2515 17.0382 48.2515 17.2146 48.2933 17.3834C48.3188 17.5556 48.3889 17.7181 48.4968 17.8547C48.6038 17.9836 48.7448 18.0801 48.9038 18.1332C49.0594 18.1674 49.2211 18.1637 49.375 18.1225ZM50.5853 19.804L50.2961 18.3045L50.3497 16.88L49.7927 15.5841L49.525 14.2131L51.6671 13.7954L52.7381 19.397L50.5853 19.804Z" fill="#00829B"/>
<path d="M55.7157 19.547C55.2 19.5407 54.696 19.3925 54.2591 19.1185C53.8458 18.8596 53.5151 18.488 53.3059 18.0475C53.0761 17.5671 52.9694 17.0371 52.9952 16.5052C53.0028 15.9703 53.1388 15.445 53.3915 14.9736C53.6306 14.5473 53.9827 14.1952 54.409 13.9561C54.7837 13.7632 55.1946 13.6512 55.6152 13.6272C56.0359 13.6032 56.4569 13.6678 56.851 13.8169C57.1322 13.9337 57.3899 14.1007 57.6115 14.3095C57.8014 14.5045 57.9315 14.7498 57.9863 15.0164L57.8899 18.1653C57.8181 18.4348 57.6736 18.6793 57.4722 18.8722C57.2449 19.0919 56.9752 19.2632 56.6797 19.3756C56.3749 19.5031 56.0457 19.5617 55.7157 19.547ZM56.1977 17.5655C56.3627 17.5768 56.5277 17.5428 56.6749 17.4673C56.8221 17.3918 56.9459 17.2777 57.0331 17.1371C57.1192 16.9791 57.1669 16.8029 57.1723 16.623C57.1755 16.4503 57.1427 16.2789 57.0759 16.1196C56.9987 15.9777 56.8885 15.8565 56.7546 15.7662C56.6041 15.6806 56.435 15.6328 56.2619 15.6269C56.09 15.62 55.9195 15.6607 55.7693 15.7447C55.6226 15.8201 55.5001 15.9351 55.4158 16.0768C55.3248 16.225 55.2766 16.3955 55.2766 16.5695C55.2676 16.7437 55.3045 16.9173 55.3837 17.0728C55.4559 17.2217 55.5717 17.3449 55.7157 17.4263C55.8602 17.5169 56.0272 17.5652 56.1977 17.5655ZM59.2288 19.5363L57.0117 19.472V17.9404L57.3651 16.5695L57.0331 15.1771L57.183 11L59.4537 11.075L59.2288 19.5363Z" fill="#00829B"/>
<path d="M62.538 20.4359C61.97 20.3079 61.4433 20.0391 61.0064 19.6541C60.6055 19.3017 60.3091 18.846 60.1496 18.3367C59.9993 17.8153 59.9993 17.2622 60.1496 16.7408C60.27 16.2139 60.5418 15.7337 60.9314 15.3592C61.2894 15.0021 61.7314 14.7406 62.2167 14.5987C62.7795 14.4599 63.3676 14.4599 63.9304 14.5987C64.4943 14.7292 65.0169 14.9979 65.4513 15.3806C65.8572 15.748 66.1568 16.2178 66.3188 16.7408C66.4693 17.2585 66.4693 17.8083 66.3188 18.326C66.1954 18.8525 65.9285 19.3344 65.5476 19.7183C65.165 20.0872 64.6923 20.3494 64.1767 20.4788C63.6345 20.5915 63.0736 20.5769 62.538 20.4359ZM63.0093 18.508C63.1781 18.5498 63.3545 18.5498 63.5234 18.508C63.6827 18.4673 63.8251 18.3773 63.9304 18.251C64.0463 18.1115 64.1271 17.9462 64.166 17.769C64.2113 17.5934 64.2113 17.4091 64.166 17.2335C64.1312 17.0738 64.0491 16.9282 63.9304 16.8158C63.8054 16.6946 63.65 16.6094 63.4805 16.5694C63.3162 16.5209 63.1414 16.5209 62.9771 16.5694C62.8158 16.6126 62.6706 16.7019 62.5594 16.8265C62.444 16.9678 62.3601 17.1321 62.3131 17.3085C62.2704 17.4844 62.2704 17.668 62.3131 17.844C62.3524 18.002 62.4338 18.1463 62.5487 18.2617C62.6684 18.3732 62.8109 18.4573 62.9664 18.508H63.0093Z" fill="#00829B"/>
<path d="M66.5437 24.0454L70.5816 16.9979L72.5523 18.0689L71.8561 19.2792L70.8493 20.2967L70.4316 21.6569L68.4609 25.0843L66.5437 24.0454ZM70.7422 23.7776C70.4725 23.6173 70.2332 23.4106 70.0353 23.1671C69.8379 22.9363 69.6919 22.6661 69.6069 22.3745C69.5267 22.1128 69.5267 21.833 69.6069 21.5713L71.1064 18.8829C71.3024 18.6832 71.5455 18.5359 71.8133 18.4545C72.1125 18.3698 72.4254 18.3443 72.7344 18.3795C73.0641 18.4128 73.3824 18.5189 73.6662 18.6901C74.1167 18.9395 74.4879 19.3107 74.7372 19.7612C74.9801 20.1838 75.0989 20.6664 75.08 21.1535C75.0514 21.6869 74.8933 22.2052 74.6194 22.6637C74.364 23.1323 73.9959 23.5298 73.5484 23.8205C73.1395 24.0853 72.6645 24.23 72.1774 24.2382C71.6658 24.2195 71.1692 24.0601 70.7422 23.7776ZM71.3527 21.839C71.5054 21.9276 71.6796 21.9721 71.8561 21.9675C72.0185 21.9681 72.178 21.9236 72.3167 21.839C72.4677 21.7502 72.5903 21.6202 72.6701 21.4642C72.7547 21.332 72.8061 21.1813 72.82 21.025C72.8206 20.8626 72.7761 20.7031 72.6915 20.5645C72.6097 20.4117 72.4825 20.2882 72.3274 20.211C72.1827 20.1209 72.0158 20.0727 71.8454 20.0718C71.6829 20.0712 71.5235 20.1157 71.3848 20.2003C71.2344 20.2933 71.1092 20.4221 71.0207 20.5752C70.9351 20.7257 70.8873 20.8948 70.8814 21.0679C70.8735 21.2318 70.9105 21.3947 70.9886 21.5391C71.0861 21.6649 71.2105 21.7674 71.3527 21.839Z" fill="#00829B"/>
<path d="M75.3907 27.2371C74.949 26.8601 74.6101 26.3774 74.4054 25.834C74.228 25.3206 74.1983 24.7676 74.3197 24.2381C74.417 23.7011 74.666 23.2031 75.0373 22.8029C75.3933 22.4012 75.8526 22.1049 76.3654 21.9461C76.8773 21.8068 77.4172 21.8068 77.9291 21.9461C78.4931 22.0916 79.012 22.375 79.4393 22.7708C79.8616 23.1773 80.1778 23.6811 80.3604 24.2381C80.5475 24.7333 80.5993 25.2694 80.5103 25.7912C80.4194 26.325 80.1736 26.8204 79.8034 27.2157C79.4452 27.6199 78.9817 27.9165 78.4646 28.0725C77.9542 28.2225 77.4114 28.2225 76.9009 28.0725C76.3345 27.9274 75.8146 27.6398 75.3907 27.2371ZM76.7081 25.7483C76.8389 25.8672 76.9972 25.9518 77.1687 25.9947C77.322 26.0431 77.4866 26.0431 77.6399 25.9947C77.8102 25.9247 77.9609 25.8145 78.079 25.6734C78.2101 25.544 78.3028 25.3809 78.3468 25.2021C78.3897 25.0479 78.3897 24.885 78.3468 24.7308C78.2968 24.5617 78.1958 24.412 78.0576 24.3024C77.9331 24.1828 77.7771 24.1011 77.6078 24.0668C77.4499 24.0245 77.2837 24.0245 77.1258 24.0668C76.954 24.1286 76.8022 24.2359 76.6867 24.3774C76.564 24.5071 76.4756 24.6654 76.4296 24.8379C76.3935 24.9947 76.4047 25.1587 76.4618 25.3092C76.5034 25.4773 76.5927 25.6297 76.7188 25.7483H76.7081Z" fill="#00829B"/>
<path d="M77.9827 29.5934L82.5025 26.1339L83.8841 27.9333L79.3643 31.3928L77.9827 29.5934ZM81.817 29.4756L81.9241 28.0725C82.4832 27.9328 83.068 27.9328 83.6271 28.0725C84.1268 28.2261 84.5605 28.5429 84.8588 28.9722C85 29.1516 85.1154 29.3499 85.2015 29.5613C85.2632 29.7289 85.2852 29.9085 85.2658 30.0861L83.0594 30.1718C83.0798 30.0801 83.0798 29.985 83.0594 29.8933C83.0204 29.784 82.9624 29.6825 82.8881 29.5934C82.8343 29.5124 82.7632 29.4444 82.6798 29.3943C82.5964 29.3443 82.5029 29.3135 82.4061 29.3042C82.1957 29.2906 81.9872 29.3512 81.817 29.4756Z" fill="#00829B"/>
<path d="M82.7595 36.9622L90.364 33.7491L91.2529 35.8912L83.6485 39.1043L82.7595 36.9622ZM87.6114 32.2817L89.4214 31.532L92.2062 38.2261L90.3854 38.9865L87.6114 32.2817Z" fill="#00829B"/>
<path d="M84.5051 41.7819L90.0532 40.5074L90.5566 42.7244L85.0299 43.9883L84.5051 41.7819ZM90.8243 41.4927C90.7848 41.3442 90.7778 41.1888 90.8036 41.0373C90.8295 40.8857 90.8877 40.7415 90.9743 40.6145C91.0568 40.4837 91.1648 40.3709 91.2917 40.2826C91.4186 40.1943 91.562 40.1323 91.7133 40.1004C92.0165 40.0308 92.3348 40.0807 92.6023 40.2396C92.7372 40.3158 92.854 40.4204 92.9446 40.5461C93.0353 40.6719 93.0975 40.8158 93.1271 40.9679C93.1682 41.1181 93.1761 41.2754 93.1502 41.429C93.1243 41.5825 93.0652 41.7285 92.9771 41.8569C92.8932 41.9876 92.7834 42.0998 92.6545 42.1863C92.5255 42.2729 92.3801 42.3321 92.2274 42.3603C92.0781 42.3992 91.9226 42.4079 91.7699 42.3858C91.6173 42.3638 91.4705 42.3114 91.3384 42.2318C91.2042 42.1533 91.0887 42.0465 90.9999 41.9189C90.9112 41.7913 90.8512 41.6459 90.8243 41.4927Z" fill="#00829B"/>
<path d="M85.2659 45.552L93.2559 44.7916L93.4701 47.0408L85.4801 47.8012L85.2659 45.552ZM88.9717 43.9776L90.8139 43.8062L91.2637 48.476L89.4215 48.6581L88.9717 43.9776Z" fill="#00829B"/>
<path d="M85.2657 52.0854C85.303 51.5076 85.4833 50.9482 85.7905 50.4574C86.07 49.9951 86.4751 49.6217 86.9587 49.3809C87.4422 49.14 87.9843 49.0416 88.5217 49.0972C89.0548 49.1336 89.5668 49.3198 89.9988 49.6343C90.4308 49.9489 90.7653 50.379 90.9637 50.8751C91.1835 51.4142 91.2681 51.9988 91.21 52.5781C91.1728 53.1559 90.9924 53.7153 90.6852 54.2061C90.4042 54.6578 90.0088 55.0273 89.5392 55.2771C89.0543 55.5151 88.5134 55.6151 87.9755 55.5663C87.4396 55.5301 86.9247 55.3443 86.4893 55.03C86.0538 54.7157 85.7152 54.2855 85.512 53.7884C85.2896 53.25 85.2049 52.6647 85.2657 52.0854ZM87.2471 52.2461C87.2198 52.4137 87.2429 52.5856 87.3134 52.7401C87.384 52.8946 87.4988 53.0246 87.6434 53.1136C87.8006 53.2051 87.9763 53.26 88.1575 53.2743C88.3394 53.2893 88.5223 53.2637 88.6931 53.1993C88.8415 53.133 88.9706 53.0297 89.0679 52.8994C89.167 52.7537 89.2227 52.5828 89.2286 52.4067C89.2499 52.2342 89.2201 52.0591 89.1429 51.9033C89.0687 51.7593 88.9579 51.6374 88.8216 51.5499C88.666 51.4532 88.4899 51.3945 88.3075 51.3785C88.1291 51.3641 87.9498 51.3897 87.7827 51.4535C87.6312 51.5201 87.5014 51.6277 87.4078 51.7641C87.3174 51.8942 87.262 52.0455 87.2471 52.2032V52.2461Z" fill="#00829B"/>
<path d="M83.7451 81.2072C83.6445 80.1882 83.4836 79.1761 83.2631 78.1762C82.6716 75.6164 81.8728 73.109 80.8747 70.6788C80.7143 70.371 80.5955 70.0432 80.5212 69.7042C80.484 69.3087 80.484 68.9107 80.5212 68.5153C80.5212 68.2047 80.5212 67.8727 80.5855 67.5621C80.6497 67.2515 80.9175 66.973 81.3245 66.8552C82.0079 66.714 82.7097 66.685 83.4023 66.7695C84.055 66.8122 84.7097 66.8122 85.3623 66.7695C85.8768 66.7772 86.3851 66.6557 86.8404 66.416C87.2192 66.1884 87.5213 65.8527 87.7079 65.4521C87.8695 64.9993 87.9311 64.517 87.8886 64.0381C87.8461 63.5593 87.7004 63.0953 87.4616 62.6781C87.0203 61.6983 86.3823 60.8197 85.5873 60.0969C85.0839 59.6577 84.5162 59.2829 83.97 58.8866L82.2777 57.6763C81.1424 56.873 79.9964 56.0483 78.8075 55.3307C77.7289 54.681 76.5834 54.1495 75.3909 53.7455C74.0735 53.2957 72.7133 52.9208 71.353 52.5995C71.1746 52.573 71.0039 52.5087 70.8524 52.4108C70.701 52.3129 70.5722 52.1837 70.4748 52.0319L69.875 51.1215C69.5215 50.5967 69.1681 50.0504 68.8039 49.5577C65.88 45.2735 62.8275 40.9893 58.7896 37.7762C56.8484 36.1633 54.6313 34.9151 52.2455 34.0918C51.0234 33.6862 49.7415 33.4906 48.454 33.5134C47.9409 33.5083 47.4316 33.6029 46.9545 33.7919C46.4411 34.0389 45.9621 34.3522 45.5301 34.7237C45.0875 35.0298 44.6845 35.3896 44.3305 35.7948C43.9544 36.0277 43.6359 36.3425 43.3987 36.7159C43.2996 36.8448 43.2101 36.9808 43.1309 37.1229C42.8345 37.6639 42.5698 38.2218 42.3383 38.7937C41.7278 40.1861 41.1173 41.5998 40.5604 43.0779C40.0065 44.5413 39.5275 46.032 39.1252 47.5442C38.7112 49.0071 38.3928 50.4954 38.172 51.9997C38.0648 52.803 37.9685 53.617 37.8721 54.431C37.8796 54.8214 37.7466 55.2015 37.4972 55.5021C37.1938 55.771 36.8505 55.9914 36.4797 56.1554C35.8267 56.4431 35.1329 56.6274 34.4233 56.7016C34.1092 56.7607 33.7892 56.7823 33.47 56.7659C33.3844 56.7659 33.2451 56.7659 33.2558 56.5838C33.2903 56.5021 33.3373 56.4262 33.3951 56.3589L33.7485 55.7912C34.1234 55.1379 34.4554 54.4524 34.8196 53.7777L35.2694 52.8137C35.4381 52.5194 35.5814 52.2112 35.6978 51.8926C35.7364 51.6995 35.7114 51.4991 35.6264 51.3214C35.5414 51.1438 35.4011 50.9984 35.2266 50.9073C34.7143 50.597 34.122 50.4443 33.5236 50.4681C31.8291 50.3717 30.1306 50.3717 28.4361 50.4681C28.2256 50.4788 28.0147 50.4788 27.8042 50.4681C27.5043 50.4681 27.5579 50.2646 27.5257 50.0076L27.3972 48.7437L27.3329 48.144C27.3271 48.0548 27.3271 47.9653 27.3329 47.8762C27.3865 47.737 27.5686 47.7477 27.6864 47.7155L28.9181 47.4692C28.9649 47.0931 29.1524 46.7487 29.4429 46.5052C29.5929 46.3776 29.7104 46.216 29.7856 46.034C29.822 45.8686 29.8187 45.6969 29.7758 45.5331C29.733 45.3693 29.6519 45.2179 29.5393 45.0915C29.2507 44.6709 28.8216 44.367 28.329 44.2346C27.7399 44.0847 27.1616 44.2346 26.5832 44.2346C26.0048 44.2346 25.9192 44.4703 25.5122 44.7594C25.1062 45.0639 24.7456 45.4245 24.4411 45.8305C24.149 46.2287 23.928 46.6744 23.7878 47.1479C23.7171 47.3769 23.681 47.6151 23.6807 47.8548C23.6807 48.1332 23.6807 48.4117 23.6807 48.6795C23.6807 48.6795 23.8949 48.6795 23.9913 48.6795C24.2018 48.6004 24.4163 48.5325 24.6339 48.476C24.886 48.4386 25.1422 48.4386 25.3943 48.476C25.5609 48.5271 25.7343 48.5524 25.9084 48.551C26.1012 48.551 26.2083 48.3689 26.3797 48.326C26.7653 48.2296 26.776 48.7116 26.8403 48.9687L26.9902 49.622L27.0759 50.0183C27.0759 50.1254 27.2473 50.4467 27.2044 50.5538C27.1616 50.6609 26.4975 50.8109 26.2833 50.9501C26.1703 51.025 26.0779 51.1269 26.0143 51.2466C25.9507 51.3663 25.918 51.5 25.9192 51.6356C25.8013 52.7066 25.8335 53.7777 25.7692 54.8487C25.7304 55.2047 25.7304 55.5638 25.7692 55.9198C25.7692 56.1447 25.887 56.2732 25.7692 56.4874C25.6916 56.5977 25.6201 56.7121 25.555 56.8302C25.4957 57.1487 25.4957 57.4755 25.555 57.7941C25.555 58.3296 25.555 58.8652 25.4693 59.4007C25.3836 59.9362 25.3301 60.5467 25.2444 61.1251C25.2444 61.3393 25.1052 61.757 25.2444 61.9391C25.4012 62.034 25.5707 62.1062 25.7478 62.1533L26.3369 62.3782C26.8112 62.5624 27.3028 62.6987 27.8042 62.7852C28.0143 62.8064 28.226 62.8064 28.4361 62.7852C28.579 62.7704 28.7233 62.7878 28.8586 62.836C28.9938 62.8841 29.1166 62.9619 29.218 63.0637L30.5032 64.1347L31.0602 64.5845C31.2101 64.7024 31.5529 64.8416 31.5529 65.0344C31.5529 65.2272 31.3815 65.3129 31.3387 65.3771L31.1245 65.7091C30.9745 65.9341 30.8353 66.1483 30.7067 66.3732C29.6307 68.1416 29.0397 70.1623 28.9931 72.2318C29.0562 75.8779 30.3044 79.4043 32.5489 82.2783C33.7817 83.9428 35.2214 85.4436 36.8331 86.7445C38.5882 88.0943 40.4509 89.2979 42.4026 90.3433L39.7892 92.4854L39.2537 92.9138C39.2537 92.9138 39.0181 93.1494 38.9538 93.128C38.8801 92.9999 38.8225 92.8632 38.7824 92.721C38.5897 92.2819 38.3862 91.8427 38.1612 91.4143C37.2574 89.7241 36.1338 88.1611 34.8196 86.766C34.0698 85.9377 33.3201 85.1237 32.5704 84.324C31.8795 83.5617 31.1389 82.8461 30.3533 82.1819C29.5179 81.5178 28.6503 80.9073 27.7721 80.2968C26.9658 79.7149 26.1049 79.2127 25.2016 78.7974C25.0257 78.6984 24.8321 78.6352 24.6317 78.6113C24.4314 78.5874 24.2283 78.6033 24.0341 78.6581C23.7021 78.8081 23.9484 79.0544 23.9591 79.3329C23.9355 79.5603 23.8961 79.7857 23.8413 80.0076C23.7978 80.2624 23.7763 80.5204 23.7771 80.7788C23.7909 81.2176 23.8592 81.6529 23.9806 82.0748C24.2441 82.9642 24.6033 83.8225 25.0516 84.6346C25.5336 85.6306 26.0263 86.6053 26.5189 87.58C27.5043 89.5078 28.5004 91.425 29.6143 93.2672C29.882 93.7064 30.1498 94.1455 30.4283 94.5632C30.5675 94.7881 30.7175 95.013 30.8674 95.238C31.0612 95.4628 31.2135 95.7203 31.3172 95.9984C31.3172 96.2019 31.0923 96.4482 30.9852 96.5982L30.5247 97.2729C30.1859 97.7313 29.8884 98.2187 29.6357 98.7296C29.4591 99.1272 29.3297 99.5442 29.2501 99.972C29.1247 100.341 29.0561 100.728 29.0466 101.118C29.1537 101.686 30.1177 101.493 30.5247 101.461C32.3675 101.209 34.1391 100.582 35.73 99.6185C36.5215 99.1756 37.2835 98.6819 38.0113 98.1405C38.7289 97.5943 39.5215 96.8874 40.4961 97.1765C40.9674 97.3158 41.3958 97.605 41.8456 97.787C42.3086 97.9359 42.7809 98.054 43.2594 98.1405C44.3208 98.3627 45.3934 98.5272 46.4726 98.6332C48.6033 98.9052 50.7552 98.9733 52.8989 98.8367C54.9946 98.6796 57.075 98.3609 59.1217 97.8834C62.9323 97.105 66.5645 95.6231 69.8321 93.5136C71.4225 92.4648 72.83 91.1623 73.9985 89.6578C74.7163 88.845 75.5331 88.1254 76.4298 87.5157C76.6012 87.3765 76.9118 87.023 77.1474 87.0659C77.383 87.1087 77.6294 87.3872 77.8115 87.4943C78.2234 87.7467 78.6572 87.9617 79.1074 88.1369C79.9248 88.5276 80.8267 88.708 81.7315 88.6617C82.0752 88.6532 82.4049 88.5243 82.6633 88.2976C82.8941 87.9348 83.0641 87.5369 83.1667 87.1194C83.7564 85.2079 83.9532 83.1968 83.7451 81.2072ZM25.9084 47.6513C25.2524 47.5581 24.5834 47.6548 23.9806 47.9297C24.1823 47.3215 24.4405 46.7334 24.7517 46.1732C24.9421 45.8906 25.1572 45.6254 25.3943 45.3806C25.481 45.2584 25.5857 45.1501 25.7049 45.0593C25.7671 45.0292 25.8381 45.0224 25.9049 45.0401C25.9717 45.0578 26.0299 45.0988 26.0691 45.1557C25.8481 45.9684 25.7971 46.818 25.9192 47.6513H25.9084ZM45.1873 35.3342L46.1084 34.5738C46.6426 34.1189 47.3052 33.8418 48.0042 33.7812C49.595 33.6967 51.1834 33.9865 52.6418 34.6273C55.461 35.868 58.0085 37.6512 60.1392 39.8755C62.3104 42.0604 64.2885 44.4291 66.0513 46.9551C67.9364 49.5899 69.7143 52.3103 71.4066 55.0308C74.921 60.2563 77.8654 65.8434 80.1892 71.6963C81.2581 74.5958 81.9772 77.6125 82.3313 80.6824C82.5187 82.2317 82.5617 83.795 82.4598 85.3522C82.4217 86.1546 82.3033 86.9511 82.1064 87.7299C81.9029 88.4582 80.9818 88.2226 80.4355 88.0619C79.6983 87.8515 78.9814 87.5755 78.2934 87.2372C77.5437 86.8516 76.8582 86.3483 76.1513 85.8984C74.8125 85.0309 73.463 84.2169 72.1777 83.2315C70.8925 82.2461 69.543 81.4321 68.2363 80.5218C66.9296 79.6114 65.5801 78.6795 64.1984 77.8441L63.1916 77.2443C63.1037 77.1703 63.0005 77.1165 62.8895 77.0869C62.7784 77.0573 62.6621 77.0525 62.549 77.073C62.549 77.073 62.549 77.1479 62.549 77.1694C62.8478 77.5016 63.2126 77.7679 63.6201 77.9512C64.1449 78.2511 64.6911 78.5403 65.1731 78.8616C66.0812 79.4033 66.9574 79.997 67.7971 80.6396C66.9744 80.9419 66.1031 81.0908 65.2266 81.0787C64.3708 81.1376 63.5119 81.1376 62.6561 81.0787C60.7565 80.9611 58.8671 80.7142 57.001 80.3397C55.1266 79.9541 53.2416 79.5578 51.3887 79.033C49.5819 78.5059 47.8199 77.8362 46.1191 77.0301C45.2394 76.6204 44.3846 76.159 43.5593 75.6485C43.1072 75.4403 42.7054 75.1371 42.3812 74.7595C42.1319 74.4184 41.9064 74.0606 41.7064 73.6885C40.8955 72.1119 40.2253 70.4668 39.7036 68.7723C39.151 67.0441 38.7355 65.2749 38.4611 63.4814C38.3326 62.5817 38.2255 61.682 38.1398 60.7823C38.0541 59.8505 37.9577 58.908 37.9577 57.9762C37.9577 57.8798 37.9577 57.4835 38.0327 57.6013C38.1077 57.7191 38.1077 57.9012 38.1505 58.019C38.2688 58.3885 38.4193 58.7469 38.6004 59.0901C38.9066 59.746 39.2647 60.3763 39.6714 60.9751C40.5143 62.1715 41.7255 63.0592 43.1202 63.5028C44.6377 64.0637 46.2978 64.1089 47.8435 63.6313C49.2365 63.0641 50.4373 62.1087 51.303 60.8787C52.2909 59.51 53.0172 57.9704 53.4451 56.3375C53.6906 55.4637 53.8873 54.5769 54.0342 53.6813C54.1896 52.855 54.2649 52.0157 54.2591 51.175C54.2591 50.104 53.7664 48.0476 52.3419 48.0261C51.6046 48.1134 50.9067 48.4067 50.3284 48.8723C49.5572 49.3649 48.8075 49.9433 48.0149 50.3824C46.6598 51.2941 45.0167 51.6753 43.3987 51.4535C42.6374 51.2957 41.9202 50.972 41.2982 50.5055C40.6762 50.039 40.1646 49.4411 39.7999 48.7544C39.5221 48.3432 39.4146 47.8403 39.5001 47.3514C39.5965 46.9209 39.7145 46.4955 39.8535 46.0768C40.1213 45.145 40.4212 44.2239 40.7746 43.3135C41.4494 41.5891 42.0384 39.8005 42.8631 38.1404C43.2903 37.353 43.8002 36.6134 44.384 35.934C44.6617 35.7668 44.9172 35.5653 45.1445 35.3342H45.1873ZM74.5126 88.2226C72.928 89.3255 71.2071 90.2183 69.393 90.8788C68.9414 91.0579 68.4801 91.2116 68.0114 91.3393C68.1399 91.018 68.2684 90.6967 68.4184 90.3754C68.5683 90.0541 68.7075 89.7113 68.8254 89.3686C69.0776 88.6789 69.2361 87.9584 69.2966 87.2265C69.397 85.8331 69.1696 84.4355 68.6326 83.1458C68.354 82.4395 67.9713 81.7789 67.4973 81.1858C67.7714 81.0692 68.0765 81.0466 68.3648 81.1215C68.5134 81.1867 68.6536 81.2694 68.7825 81.3679L69.2752 81.6785C69.8536 82.0641 70.4319 82.4603 70.9996 82.8673C71.5672 83.2743 72.1349 83.6813 72.6918 84.0883C73.2488 84.4953 73.8272 84.9559 74.4162 85.3522C75.0053 85.7485 75.6908 86.1769 76.312 86.616C75.8164 87.2579 75.2063 87.8026 74.5126 88.2226ZM72.0171 91.0073C69.8721 92.9976 67.3871 94.5866 64.6804 95.6985C62.0147 96.8271 59.2137 97.6048 56.3476 98.012C53.2526 98.4792 50.1106 98.5512 46.9974 98.2262C45.3634 97.9868 43.749 97.6289 42.167 97.1551C41.7814 97.0587 41.3958 96.9623 41.0102 96.8445C40.6247 96.7267 40.3355 96.5875 39.9392 96.4911C39.7247 96.4376 39.5003 96.4376 39.2858 96.4911C39.0163 96.606 38.7724 96.7735 38.5682 96.9838C37.4054 97.9447 36.1326 98.7645 34.7767 99.4258C33.4757 100.125 32.0792 100.63 30.6318 100.925C30.2581 100.968 29.8808 100.968 29.5072 100.925C29.5469 100.629 29.6187 100.338 29.7214 100.058C29.8335 99.6936 29.9658 99.336 30.1177 98.9866C30.3961 98.3761 30.8031 97.8192 31.1887 97.2301L31.66 96.4375C31.7983 96.2324 31.8864 95.9976 31.917 95.7521C31.8778 95.2677 31.6693 94.8127 31.328 94.4668C29.7172 92.1774 28.2541 89.7877 26.9474 87.3122C26.3154 86.0912 25.7264 84.8488 25.1587 83.5957C24.8433 82.9742 24.5956 82.3207 24.4197 81.6463C24.3544 81.3501 24.3114 81.0494 24.2912 80.7467C24.2641 80.3874 24.293 80.0261 24.3768 79.6756C24.3768 79.515 24.5161 79.5578 24.6767 79.6114C24.8374 79.6649 24.9445 79.7506 25.073 79.8149L26.0691 80.3504C26.7117 80.7038 27.3115 81.1001 27.922 81.5071C29.0455 82.2263 30.119 83.0207 31.1352 83.8848C32.2062 84.8381 33.1916 85.8984 34.1769 86.9266C35.1643 87.8816 36.0707 88.917 36.8867 90.0219C37.2508 90.5575 37.5829 91.093 37.8935 91.6821C38.0434 91.9391 38.1827 92.2069 38.3326 92.4746C38.4826 92.7424 38.7824 93.203 38.6325 93.4707C38.5143 93.6104 38.4398 93.7817 38.4183 93.9634C38.4082 94.0396 38.4268 94.1167 38.4703 94.18C38.5138 94.2433 38.5792 94.2883 38.6539 94.3061C38.7455 94.3228 38.8398 94.3158 38.9279 94.2859C39.016 94.2559 39.095 94.2039 39.1573 94.1348C39.4144 93.8777 39.6928 93.6421 39.9606 93.3957L41.5565 91.9391L42.349 91.2108L42.6918 90.9002C42.8524 90.7395 42.9274 90.5896 43.163 90.6967C44.4419 91.299 45.7585 91.8177 47.1045 92.2497C49.8256 93.0857 52.6379 93.5892 55.4801 93.7492C60.7955 94.1464 66.1279 93.2497 71.021 91.1358L71.8993 90.7074C72.1047 90.5608 72.3326 90.4487 72.574 90.3754L72.0171 91.0073ZM38.2898 86.1233C37.9461 85.825 37.6656 85.4608 37.4651 85.0523C37.2723 84.712 37.1144 84.3532 36.9938 83.9812C36.7359 83.1485 36.6953 82.2636 36.876 81.4107C36.9901 80.9165 37.1552 80.4356 37.3687 79.9755C37.5519 79.5395 37.7593 79.114 37.9899 78.701C38.2148 78.2833 38.4611 77.8763 38.7289 77.4693C38.9649 77.0922 39.2299 76.7341 39.5215 76.3982C40.0582 75.8524 40.7313 75.4604 41.4708 75.2629C41.663 75.1953 41.8676 75.1697 42.0706 75.1879C42.1873 75.2168 42.2945 75.2759 42.3812 75.3593C42.4471 75.436 42.5187 75.5075 42.5954 75.5735C42.9702 75.8413 43.388 76.0769 43.7842 76.3125C45.4341 77.2929 47.1735 78.1142 48.9788 78.7652C49.9106 79.108 50.8639 79.3864 51.8171 79.6542L54.7518 80.4575C54.9874 80.4575 55.2123 80.5539 55.448 80.586C55.6836 80.6181 55.855 80.6396 55.9728 80.8216C56.0778 81.0231 56.1501 81.2401 56.187 81.4643C56.2411 81.6869 56.284 81.9121 56.3155 82.139C56.4441 83.0628 56.4441 84 56.3155 84.9238C56.1977 85.9198 56.0263 86.9266 55.8121 87.912C55.603 88.9009 55.2944 89.8662 54.891 90.7931C54.711 91.2267 54.4848 91.6397 54.2163 92.0248C54.1904 92.0753 54.158 92.1221 54.1199 92.164C54.1199 92.2283 54.1199 92.239 53.9913 92.239L53.6058 92.1748L52.8989 92.0784C52.4062 91.982 51.9135 91.8641 51.4208 91.7463L49.8892 91.3822C48.0634 90.9024 46.2738 90.294 44.534 89.5614C42.7878 88.842 41.1131 87.9598 39.5322 86.9266C39.0502 86.6696 38.6646 86.359 38.2898 86.1233ZM36.0191 84.3026C34.7316 83.1452 33.5686 81.8566 32.5489 80.4575C31.5112 79.0563 30.7048 77.4978 30.1605 75.8413C29.9128 75.0276 29.7442 74.1918 29.6571 73.3457C29.6302 72.9034 29.6302 72.4599 29.6571 72.0176C29.6378 71.5681 29.6774 71.118 29.7749 70.6788C29.9098 70.2356 30.1199 69.819 30.3961 69.4471C30.6428 69.0692 30.9185 68.7111 31.2208 68.3761C31.8052 67.7572 32.4677 67.2172 33.1916 66.7695C33.3746 66.6486 33.5641 66.5377 33.7592 66.4375C33.8474 66.4003 33.9421 66.3812 34.0377 66.3812C34.1333 66.3812 34.228 66.4003 34.3162 66.4375C34.7981 66.6088 35.2587 66.8016 35.73 66.9837C36.2012 67.1658 36.6725 67.3371 37.1545 67.4871C37.6364 67.637 38.0541 67.7227 38.5147 67.8191L39.2002 67.9691C39.7521 69.8056 40.4469 71.5961 41.278 73.3243C41.5029 73.8063 41.7493 74.2775 41.9956 74.7488C40.5557 74.8619 39.207 75.4981 38.2041 76.5374C37.6208 77.1666 37.1499 77.8911 36.8117 78.6795C36.6037 79.0812 36.4316 79.5006 36.2976 79.9327C36.2021 80.3887 36.1341 80.8501 36.0941 81.3143C36.0941 81.8606 35.9656 82.3854 35.9656 82.9423C35.947 83.4091 36.0049 83.8758 36.137 84.324C36.0969 84.3225 36.0572 84.3153 36.0191 84.3026ZM30.1926 68.601C30.2783 68.3118 30.3854 68.0333 30.5032 67.7441C30.7551 67.1401 31.0597 66.5595 31.4136 66.009C31.5677 65.7525 31.7471 65.5121 31.9492 65.2914L33.2558 66.0305C31.977 66.8034 30.8953 67.8631 30.0962 69.1258C30.1177 68.9223 30.1605 68.7616 30.1926 68.601ZM31.7135 63.2457C30.5675 62.3889 29.4322 61.5213 28.3183 60.6217C27.8184 60.2137 27.3593 59.7581 26.9474 59.2614C26.5266 58.7934 26.2414 58.2194 26.1227 57.6013C26.0606 57.3539 26.0991 57.092 26.2298 56.873C26.4448 56.6987 26.7134 56.6041 26.9902 56.6052C27.3255 56.5838 27.6617 56.5838 27.997 56.6052L29.068 56.6588C29.7749 56.6588 30.4818 56.7552 31.2101 56.8409C31.9384 56.9265 32.6346 57.0229 33.3522 57.0551C34.1156 57.0627 34.8773 56.9836 35.6229 56.8194C35.987 56.7445 36.3512 56.6695 36.6939 56.5624C37.0366 56.4553 37.3687 56.3161 37.7007 56.1875C37.7007 57.6227 37.7007 59.0579 37.8506 60.4717C37.9494 61.97 38.1354 63.4613 38.4076 64.938C38.5575 65.7306 38.7503 66.5339 38.9538 67.3157C37.9268 67.068 36.9417 66.6711 36.0299 66.1376C35.0526 65.5961 34.1116 64.9914 33.213 64.3275L31.7135 63.2457ZM26.851 60.1932C27.2473 60.8037 27.6864 61.3714 28.1148 61.9605C27.7901 62.0302 27.4542 62.0302 27.1294 61.9605C26.5804 61.8678 26.0396 61.7317 25.5122 61.5535C25.5657 60.9858 25.6193 60.4182 25.6621 59.8612C25.7049 59.3043 25.6621 58.8866 25.7478 58.4046C26.1227 59.0044 26.4654 59.5828 26.851 60.1932ZM26.776 53.3171C26.5479 53.3882 26.3366 53.5048 26.1548 53.6599C26.1548 52.9423 26.2083 52.2246 26.2726 51.5178C26.2726 51.325 26.4975 51.2071 26.6689 51.1429L27.1937 51.0144L27.4829 53.285C27.2474 53.2502 27.0074 53.2611 26.776 53.3171ZM30.1605 50.8751C31.0281 50.8751 31.9063 50.8751 32.7739 51.0037C33.1909 51.0426 33.6056 51.1033 34.0163 51.1857C34.2234 51.2274 34.4156 51.3235 34.5732 51.4642C34.6824 51.551 34.8111 51.6098 34.9481 51.6356C34.7237 52.4114 34.3959 53.1536 33.9734 53.8419C33.871 53.8209 33.7653 53.8209 33.6628 53.8419C33.5133 53.8577 33.3625 53.8577 33.213 53.8419C32.9308 53.8216 32.6511 53.775 32.3776 53.7027C32.1205 53.6384 31.8635 53.5635 31.5957 53.5206C31.325 53.4939 31.0524 53.4939 30.7817 53.5206C30.516 53.5327 30.2513 53.5614 29.9891 53.6063C29.7214 53.6063 29.4536 53.7241 29.1751 53.767C28.887 53.8328 28.5846 53.7868 28.329 53.6384C28.269 53.5997 28.2178 53.5485 28.1791 53.4885C28.1499 53.4204 28.1319 53.3481 28.1255 53.2743L28.0291 52.8459C27.8899 52.2139 27.7614 51.5927 27.6221 50.9608C28.4683 50.918 29.3358 50.8751 30.1605 50.8751ZM32.1527 56.6159C30.9467 56.575 29.7464 56.4316 28.5646 56.1875C28.479 55.5342 28.404 54.8808 28.3183 54.2275C28.6374 54.281 28.9632 54.281 29.2822 54.2275C29.6571 54.1632 30.032 54.099 30.4068 54.0561C30.7817 54.0133 31.178 53.9705 31.5529 53.9705C31.7574 53.9874 31.9571 54.0418 32.1419 54.1311C32.3045 54.1972 32.4731 54.2474 32.6453 54.2811C33.0007 54.3291 33.361 54.3291 33.7164 54.2811C33.3009 55.1252 32.7751 55.9104 32.1527 56.6159ZM26.0263 55.7912C26.0263 55.245 26.0263 54.7202 26.0905 54.1632C26.3356 54.0702 26.586 53.9915 26.8403 53.9276C26.9806 53.8904 27.1283 53.8904 27.2687 53.9276C27.4083 53.9621 27.5349 54.0365 27.6328 54.1418C27.6737 54.222 27.6992 54.3092 27.7078 54.3989C27.7078 54.4738 27.7078 54.5595 27.7078 54.6345C27.7078 54.7095 27.7828 54.9558 27.8149 55.1165C27.847 55.2771 27.9541 55.7591 28.0184 56.0697C27.5906 56.0375 27.161 56.0375 26.7332 56.0697C26.5409 56.0906 26.347 56.0906 26.1548 56.0697C26.037 56.0697 26.0263 55.9305 26.0263 55.7912ZM55.041 91.9284C55.178 91.7935 55.3067 91.6504 55.4265 91.5C55.6511 91.1646 55.8379 90.8054 55.9835 90.4289C56.3644 89.6622 56.704 88.8756 57.001 88.0726C57.264 87.2519 57.4329 86.4039 57.5044 85.545C57.6302 84.7492 57.6194 83.9379 57.4722 83.1458C57.3592 82.7351 57.2233 82.3311 57.0652 81.9355L56.8296 81.3572C56.8296 81.2393 56.7439 81.1322 56.6904 81.0144C56.6804 80.947 56.6804 80.8784 56.6904 80.8109C59.3221 81.3165 62.0022 81.5249 64.6804 81.4321C65.4301 81.4321 66.1906 81.3357 66.9296 81.2393C67.3937 81.8083 67.6804 82.501 67.7543 83.2315C67.915 84.0348 68.0435 84.8488 68.1292 85.6628C68.2183 86.4845 68.2647 87.3103 68.2684 88.1369C68.2216 89.0029 68.0146 89.8527 67.6579 90.6432C67.5724 90.9154 67.4575 91.1776 67.3152 91.425C67.2092 91.5579 67.0624 91.652 66.8975 91.6928C66.1923 91.8933 65.4773 92.0578 64.7554 92.1855C63.1815 92.4689 61.588 92.63 59.9892 92.6674C59.1966 92.6674 58.4041 92.6674 57.6222 92.6674L56.4333 92.5925C56.0263 92.5925 55.6086 92.5282 55.2123 92.4746L54.9339 92.4211H54.7839H54.7197L55.041 91.9284ZM50.9817 49.6006C51.2387 49.4721 51.4637 49.29 51.7314 49.1829C52.0144 49.0759 52.3267 49.0759 52.6097 49.1829C52.7135 49.2298 52.795 49.3153 52.8369 49.4212C52.8789 49.5271 52.8781 49.6452 52.8346 49.7505C52.7522 50.0138 52.6446 50.2684 52.5133 50.511C52.2544 50.9857 51.8875 51.393 51.4422 51.6998C51.2534 51.8877 51.0014 51.9984 50.7353 52.0104C50.4676 52.0104 50.4355 51.6463 50.414 51.4321C50.414 51.0572 50.414 50.693 50.414 50.361C50.4232 50.1924 50.482 50.0303 50.583 49.895C50.684 49.7597 50.8227 49.6573 50.9817 49.6006ZM71.1067 52.9422C71.578 53.0922 72.0599 53.2314 72.5312 53.3921L73.9557 53.8848C74.8982 54.2168 75.83 54.5595 76.7404 54.9558C77.6218 55.3674 78.4736 55.8398 79.2895 56.3696C80.1356 56.9051 80.9282 57.5049 81.7529 58.0726C82.5776 58.6402 83.3809 59.1436 84.1521 59.7648C84.8585 60.2945 85.486 60.922 86.0157 61.6285C86.5336 62.3062 86.8658 63.1073 86.9796 63.9526C87.0171 64.1371 87.0164 64.3272 86.9777 64.5114C86.9391 64.6955 86.8632 64.8699 86.7547 65.0237C86.6134 65.1576 86.4437 65.2579 86.2583 65.3173C86.0729 65.3766 85.8765 65.3934 85.6837 65.3664C84.6955 65.3288 83.7113 65.2214 82.7383 65.0451C81.9193 64.8639 81.0659 64.9158 80.2749 65.195C80.1047 65.281 79.9402 65.3776 79.7822 65.4842C79.469 65.7404 79.1754 66.0196 78.9039 66.3196C77.9614 64.5203 77.0189 62.7316 76.0014 60.9644C75.498 60.0861 74.9303 59.2293 74.4484 58.3403C73.9664 57.4514 73.3773 56.6695 72.8846 55.8341C72.3919 54.9987 71.6743 53.9169 71.0638 52.9637L71.1067 52.9422ZM27.4936 44.6416C27.7462 44.6558 27.9928 44.7244 28.2165 44.8427C28.4402 44.961 28.6357 45.1262 28.7896 45.3271C28.932 45.5228 29.0339 45.7449 29.0895 45.9804L28.6932 46.6231C28.6182 45.6591 27.7399 45.1129 26.9688 44.6309C27.1435 44.613 27.3198 44.6166 27.4936 44.6416ZM26.6796 47.4692C26.453 46.7374 26.4125 45.9607 26.5618 45.2093C27.2477 45.6628 27.8284 46.2581 28.2648 46.9551L26.6796 47.4692Z" fill="#00829B"/>
<path d="M64.8086 40.9358C64.8204 41.6882 65.0231 42.4252 65.3976 43.0779C65.4641 43.1894 65.5718 43.2703 65.6975 43.3028C65.7517 43.3032 65.8051 43.2908 65.8535 43.2666C65.9019 43.2424 65.9439 43.2071 65.976 43.1636C66.0518 43.0533 66.1063 42.9298 66.1367 42.7994C66.1367 42.6388 66.2331 42.4781 66.2759 42.3174C66.3366 42.1407 66.3762 41.9573 66.3937 41.7712C66.4044 41.6 66.4044 41.4283 66.3937 41.2571C66.3822 40.895 66.3283 40.5356 66.2331 40.1861C66.1893 40.0118 66.1357 39.8401 66.0724 39.672C66.0237 39.492 65.9517 39.3192 65.8582 39.1579C65.8217 39.1044 65.775 39.0586 65.7207 39.0232C65.6665 38.9877 65.6058 38.9634 65.5421 38.9514C65.4785 38.9395 65.4131 38.9402 65.3497 38.9536C65.2863 38.967 65.2262 38.9927 65.1727 39.0293C64.9157 39.2007 64.905 39.5756 64.8728 39.8433C64.8233 40.2053 64.8019 40.5705 64.8086 40.9358Z" fill="#00829B"/>
<path d="M64.2516 68.8473C64.227 68.9008 64.2199 68.9607 64.2315 69.0184C64.243 69.0762 64.2726 69.1287 64.3159 69.1686C64.4312 69.2892 64.5807 69.3715 64.7443 69.4043C65.2601 69.527 65.7947 69.5488 66.3187 69.4685C66.8703 69.3697 67.4021 69.1816 67.8932 68.9116C68.3641 68.6666 68.7825 68.3319 69.1249 67.9262C69.5155 67.4732 69.7616 66.9137 69.8318 66.3196C69.8362 66.1193 69.7664 65.9243 69.636 65.7721C69.5056 65.62 69.3236 65.5213 69.1249 65.4949C69.0306 65.4764 68.9336 65.4773 68.8396 65.4976C68.7457 65.5178 68.6569 65.557 68.5786 65.6128C68.3663 65.8024 68.2107 66.047 68.1288 66.3196C67.9389 66.741 67.6861 67.131 67.3791 67.4764C67.0416 67.8433 66.6336 68.1384 66.1795 68.3439C65.943 68.4531 65.6952 68.5357 65.4405 68.5903C65.1504 68.6496 64.8572 68.6925 64.5622 68.7188C64.504 68.7146 64.4456 68.724 64.3917 68.7463C64.3378 68.7686 64.2898 68.8032 64.2516 68.8473Z" fill="#00829B"/>
<path d="M67.1544 72.4353C67.0134 72.5007 66.8833 72.5874 66.7688 72.6924V72.8638C67.0257 72.9247 67.2872 72.9641 67.5507 72.9816C67.7982 72.9904 68.046 72.9725 68.2897 72.928C68.7989 72.8447 69.291 72.6782 69.7463 72.4353C70.2356 72.1807 70.7079 71.8944 71.1601 71.5785C71.5569 71.2942 71.8891 70.9292 72.1347 70.5075C72.2573 70.3105 72.3613 70.1025 72.4454 69.8863C72.5387 69.6933 72.5651 69.4747 72.5203 69.265C72.4745 69.0945 72.3722 68.9445 72.2303 68.8395C72.0883 68.7345 71.915 68.6806 71.7385 68.6867C71.5667 68.6897 71.4008 68.75 71.2672 68.858C71.0774 69.0414 70.9247 69.2596 70.8174 69.5007C70.5443 69.953 70.217 70.3702 69.8427 70.7431C69.1415 71.5697 68.2029 72.1606 67.1544 72.4353Z" fill="#00829B"/>
<path d="M57.8791 49.0329C58.2433 49.2471 58.5539 49.0329 58.8324 48.7759C59.1615 48.511 59.4662 48.217 59.7428 47.8976C60.0196 47.5855 60.267 47.2485 60.4818 46.8908C60.6809 46.5935 60.8025 46.2511 60.8352 45.8948C60.8936 45.5421 60.8212 45.1803 60.6317 44.8773C60.5383 44.7568 60.4044 44.6741 60.2548 44.6446C60.1052 44.6151 59.95 44.6407 59.8177 44.7166C59.6645 44.8252 59.5274 44.955 59.4107 45.1022C59.2501 45.2843 59.1001 45.4663 58.9502 45.6591C58.6642 46.0021 58.3961 46.3596 58.1469 46.7302C58.0077 46.9551 57.8684 47.18 57.7506 47.4156C57.6462 47.654 57.5638 47.9014 57.5043 48.1547C57.4628 48.3219 57.4769 48.4981 57.5446 48.6566C57.6122 48.8151 57.7297 48.9472 57.8791 49.0329Z" fill="#00829B"/>
<path d="M62.024 64.938C62.2615 65.022 62.5139 65.0549 62.7649 65.0346C63.016 65.0143 63.2599 64.9413 63.4807 64.8202C63.9062 64.6531 64.3091 64.4337 64.6802 64.1668C65.0703 63.9169 65.4298 63.6221 65.7513 63.2886C66.0879 62.9475 66.3762 62.5619 66.6081 62.1426L66.7688 61.7998C66.7688 61.7998 66.8223 61.7248 66.8223 61.6285C66.8277 61.5715 66.8277 61.5141 66.8223 61.4571C66.8263 61.2314 66.7588 61.0102 66.6296 60.8252C66.5279 60.6799 66.3917 60.5621 66.2333 60.4824C66.1451 60.4704 66.0553 60.4797 65.9714 60.5095C65.8876 60.5393 65.8121 60.5888 65.7513 60.6538C65.5669 60.8636 65.4185 61.1024 65.3122 61.3607C65.18 61.6003 65.0296 61.8295 64.8623 62.0462C64.544 62.4888 64.1854 62.9011 63.7913 63.2779C63.4101 63.6648 62.9547 63.9708 62.4525 64.1775L62.0669 64.2954C62.0095 64.3061 61.9554 64.3301 61.9089 64.3654C61.8624 64.4007 61.8248 64.4464 61.7991 64.4989C61.7134 64.6274 61.9062 64.8095 62.024 64.938Z" fill="#00829B"/>
<path d="M44.5123 39.4577C44.8064 39.0127 45.0304 38.525 45.1763 38.0118C45.2783 37.7133 45.2783 37.3893 45.1763 37.0907C45.1763 37.0907 45.112 36.9943 45.1013 37.005C45.026 37.0568 44.9576 37.118 44.8978 37.1871C44.8576 37.2722 44.8288 37.3623 44.8122 37.4549C44.7479 37.6584 44.6836 37.8726 44.6301 38.0868C44.5216 38.5034 44.4605 38.931 44.448 39.3613L44.5123 39.4577Z" fill="#00829B"/>
</svg>
